# xmcd
#
# Track frame offsets: 
#        150
#        30345
#        45542
#        91447
#        119948
#        163046
#        190715
#        219281
#        241383
#
# Disc length: 3769 seconds
#
# Revision: 0
# Processed by: cddbd v1.5.2PL0 Copyright (c) Steve Scherf et al.
# Submitted via: ExactAudioCopy v0.95b4
#
DISCID=740eb709
DTITLE=Various Artist - House 18
DYEAR=1900
DGENRE=
TTITLE0=Westbam - Beatboxrocker
TTITLE1=Vengaboys - Boom Boom Boom
TTITLE2=New Order - Confusion (blade mix)
TTITLE3=ATB - Don´t stop
TTITLE4=Love Inc - Homeless
TTITLE5=Stars on 45 - If I could read my mind
TTITLE6=Ayla - Liebe
TTITLE7=Sash feat. Boney M - Ma Baker
TTITLE8=DJ Sakin and friends - Nomansland
EXTD=
EXTT0=
EXTT1=
EXTT2=
EXTT3=
EXTT4=
EXTT5=
EXTT6=
EXTT7=
EXTT8=
PLAYORDER=
